<svg xmlns="http://www.w3.org/2000/svg" width="15.996" height="16" viewBox="0 0 15.996 16"><defs><style>.a{fill:#6122d6;}</style></defs><path class="a" d="M.845,2.089,2.941,0,7.294,4.346,5.606,6.089A11.9,11.9,0,0,0,7.549,8.6a12.09,12.09,0,0,0,2.521,1.954l1.709-1.687,4.285,4.26-2.085,2.1a2.64,2.64,0,0,1-3.017.514A23.163,23.163,0,0,1,4.78,11.288,23.165,23.165,0,0,1,.331,5.106,2.615,2.615,0,0,1,.068,3.962,2.649,2.649,0,0,1,.845,2.089Zm.61,2.471a21.9,21.9,0,0,0,4.208,5.845,21.9,21.9,0,0,0,5.845,4.208,1.389,1.389,0,0,0,1.587-.272l1.2-1.211-2.522-2.507L10.32,12.06l-.389-.173A12.091,12.091,0,0,1,6.665,9.481,11.876,11.876,0,0,1,4.273,6.228L4.1,5.844,5.541,4.361l-2.6-2.6L1.727,2.972A1.39,1.39,0,0,0,1.454,4.56Z" transform="translate(-0.068)"/></svg>