<svg xmlns="http://www.w3.org/2000/svg" width="36" height="36" viewBox="0 0 36 36"><defs><style>.a{fill:#3cbde8;}.b{fill:#2c9dd4;}.c{fill:#f7c14d;}.d{fill:#ffdb66;}</style></defs><circle class="a" cx="12.963" cy="12.963" r="12.963" transform="translate(5.037 0.528)"/><path class="b" d="M86.294,71.29a12.963,12.963,0,0,1-9.972-21.244A12.963,12.963,0,1,0,94.575,68.3,12.91,12.91,0,0,1,86.294,71.29Z" transform="translate(-66.603 -46.527)"/><circle class="c" cx="1.691" cy="1.691" r="1.691" transform="translate(16.309 32.09)"/><circle class="d" cx="0.564" cy="0.564" r="0.564" transform="translate(17.436 33.217)"/><path d="M35.472,33.252H20.254a.533.533,0,0,0-.1.009,2.226,2.226,0,0,0-1.629-1.636V27.018c0-.016,0-.031,0-.046A13.491,13.491,0,0,0,27.087,3.52a.528.528,0,0,0-.712.781A12.424,12.424,0,0,1,28.8,7.327H26a14.709,14.709,0,0,0-1.579-3.29,10.86,10.86,0,0,0-1.713-2.055,12.333,12.333,0,0,1,1.779.9.528.528,0,0,0,.552-.9,13.492,13.492,0,1,0-7.565,24.991c0,.015,0,.031,0,.046v4.608a2.226,2.226,0,0,0-1.627,1.627H.528a.528.528,0,0,0,0,1.057H15.845a2.219,2.219,0,0,0,4.312-.009.533.533,0,0,0,.1.009H35.472a.528.528,0,1,0,0-1.057ZM6.665,18.6A12.348,12.348,0,0,1,5.578,14.02H9.025A19.468,19.468,0,0,0,9.677,18.6H6.728A.54.54,0,0,0,6.665,18.6Zm0-10.223a.541.541,0,0,0,.063,0H9.677a19.475,19.475,0,0,0-.652,4.579H5.578A12.348,12.348,0,0,1,6.665,8.38Zm13.619-3.9a22.9,22.9,0,0,1,.653,2.848H15.063a22.9,22.9,0,0,1,.653-2.848C16.484,1.956,17.4,1.057,18,1.057S19.516,1.956,20.284,4.479ZM30.422,14.02A12.349,12.349,0,0,1,29.335,18.6a.527.527,0,0,0-.063,0H26.323a19.475,19.475,0,0,0,.652-4.579h3.447Zm-5.2,4.579H22.153a40.065,40.065,0,0,0,.317-4.579h3.448A18.287,18.287,0,0,1,25.226,18.6Zm-9.51,3.9a22.9,22.9,0,0,1-.653-2.848h5.874a22.9,22.9,0,0,1-.653,2.848C19.516,25.027,18.6,25.926,18,25.926S16.484,25.027,15.716,22.5ZM14.9,18.6a38.714,38.714,0,0,1-.318-4.579h6.827A38.714,38.714,0,0,1,21.1,18.6Zm5.25,6.857A16.394,16.394,0,0,0,22,19.656H24.88a13.471,13.471,0,0,1-1.345,2.713A8.109,8.109,0,0,1,20.154,25.456ZM22.47,12.963a40.065,40.065,0,0,0-.317-4.579h3.073a18.287,18.287,0,0,1,.692,4.579Zm-1.057,0H14.587A38.714,38.714,0,0,1,14.9,8.384H21.1A38.715,38.715,0,0,1,21.413,12.963ZM15.846,1.526A16.4,16.4,0,0,0,14,7.327H11.12a13.471,13.471,0,0,1,1.345-2.713A8.11,8.11,0,0,1,15.846,1.526Zm-2,6.858a40.065,40.065,0,0,0-.317,4.579H10.082a18.286,18.286,0,0,1,.692-4.579ZM10.082,14.02H13.53a40.065,40.065,0,0,0,.317,4.579H10.774A18.283,18.283,0,0,1,10.082,14.02ZM14,19.656a16.4,16.4,0,0,0,1.845,5.8,8.11,8.11,0,0,1-3.381-3.088,13.465,13.465,0,0,1-1.345-2.713ZM22.711,25a10.868,10.868,0,0,0,1.709-2.052A14.709,14.709,0,0,0,26,19.655h2.8A12.511,12.511,0,0,1,22.711,25ZM29.272,8.384a.534.534,0,0,0,.059,0,12.445,12.445,0,0,1,1.091,4.583H26.975a19.468,19.468,0,0,0-.652-4.579Zm-5.737-3.77A13.465,13.465,0,0,1,24.88,7.327H22a16.4,16.4,0,0,0-1.845-5.8A8.109,8.109,0,0,1,23.535,4.614ZM13.289,1.985A10.868,10.868,0,0,0,11.58,4.036,14.707,14.707,0,0,0,10,7.327H7.2A12.511,12.511,0,0,1,13.289,1.985ZM7.2,19.656H10a14.709,14.709,0,0,0,1.579,3.29A10.868,10.868,0,0,0,13.289,25,12.511,12.511,0,0,1,7.2,19.656ZM18,34.943a1.162,1.162,0,1,1,1.162-1.162A1.164,1.164,0,0,1,18,34.943Z" transform="translate(0 0)"/></svg>