<svg xmlns="http://www.w3.org/2000/svg" width="36" height="36" viewBox="0 0 36 36"><defs><style>.a{fill:#f3ba28;}.b{fill:#4a9e61;}.c{fill:#eb7a25;}.d{fill:#f4a24a;}.e{fill:#5684c4;}.f{fill:#cb5842;}.g{fill:#955ba2;}.h{fill:#010101;}</style></defs><g transform="translate(0 -0.001)"><path class="a" d="M9.92,107.858a1.929,1.929,0,1,1,1.672-.965A1.929,1.929,0,0,1,9.92,107.858Z" transform="translate(-7.351 -95.643)"/><path class="b" d="M201.932,395.865a1.928,1.928,0,1,1,1.673-.964A1.929,1.929,0,0,1,201.932,395.865Z" transform="translate(-183.935 -360.508)"/><path class="c" d="M393.928,107.858a1.928,1.928,0,0,1-1.865-2.427,1.929,1.929,0,0,1,1.86-1.43,1.928,1.928,0,0,1,1.865,2.427,1.929,1.929,0,0,1-1.86,1.43Z" transform="translate(-360.497 -95.643)"/><circle class="d" cx="4.5" cy="4.5" r="4.5" transform="translate(13.5 13.501)"/><circle class="e" cx="3.214" cy="3.214" r="3.214" transform="translate(14.786 0.644)"/><circle class="f" cx="3.214" cy="3.214" r="3.214" transform="translate(28.928 23.787)"/><circle class="g" cx="3.214" cy="3.214" r="3.214" transform="translate(0.643 23.787)"/><g transform="translate(0 0.001)"><rect class="h" width="1.286" height="1.286" transform="translate(17.357 27.643)"/><rect class="h" width="1.286" height="1.286" transform="translate(17.357 25.071)"/><rect class="h" width="1.227" height="1.286" transform="translate(27.646 13.894) rotate(153.435)"/><path class="h" d="M378.519,100.54l.562-.281a2.558,2.558,0,1,0-.581-1.147l-.555.278Zm1.841-3.073a1.262,1.262,0,0,1,.641-.173,1.285,1.285,0,0,1,.645,2.4,1.262,1.262,0,0,1-.64.173,1.286,1.286,0,0,1-.645-2.4Z" transform="translate(-347.574 -88.294)"/><rect class="h" width="1.228" height="1.286" transform="translate(29.846 12.795) rotate(153.435)"/><rect class="h" width="1.228" height="1.286" transform="translate(25.455 14.991) rotate(153.435)"/><rect class="h" width="1.286" height="1.227" transform="translate(10.022 13.293) rotate(116.565)"/><rect class="h" width="1.286" height="1.228" transform="translate(7.827 12.196) rotate(116.565)"/><rect class="h" width="1.286" height="1.228" transform="translate(12.22 14.392) rotate(116.565)"/><path class="h" d="M1.286,100.8a2.536,2.536,0,0,0,3.207-.547l.561.281.575-1.15-.555-.278A2.565,2.565,0,1,0,1.286,100.8Zm.172-2.869a1.291,1.291,0,0,1,1.116-.643,1.255,1.255,0,0,1,.64.172,1.285,1.285,0,0,1-.645,2.4,1.268,1.268,0,0,1-.641-.172A1.287,1.287,0,0,1,1.458,97.93Z" transform="translate(0 -88.287)"/><path class="h" d="M195.855,376.989a2.567,2.567,0,0,0-.643-.262V376h-1.286v.726a2.57,2.57,0,1,0,1.929.262Zm-.172,2.869a1.291,1.291,0,0,1-1.115.643,1.26,1.26,0,0,1-.64-.173,1.285,1.285,0,0,1,.645-2.4,1.262,1.262,0,0,1,.64.173A1.287,1.287,0,0,1,195.683,379.858Z" transform="translate(-176.569 -345.787)"/><path class="h" d="M32.143,23.144a3.832,3.832,0,0,0-2.852,1.281L22.637,20.19a4.908,4.908,0,0,0,.2-3.887l.423-.211-.575-1.15-.406.2a5.125,5.125,0,0,0-3.632-2.222V7.65a3.857,3.857,0,1,0-1.286,0v5.273a5.125,5.125,0,0,0-3.632,2.222l-.406-.2-.575,1.15.423.212a4.908,4.908,0,0,0,.2,3.887L6.709,24.424a3.738,3.738,0,1,0,.7,1.077L14.06,21.27a5.1,5.1,0,0,0,3.3,1.809v.707h1.286v-.708a5.1,5.1,0,0,0,3.3-1.809L28.587,25.5a3.859,3.859,0,1,0,3.556-2.357ZM3.857,29.572A2.571,2.571,0,1,1,6.429,27,2.574,2.574,0,0,1,3.857,29.572ZM15.428,3.858A2.571,2.571,0,1,1,18,6.43,2.574,2.574,0,0,1,15.428,3.858Zm2.571,18A3.857,3.857,0,1,1,21.857,18,3.862,3.862,0,0,1,18,21.858Zm14.143,7.714A2.571,2.571,0,1,1,34.714,27,2.574,2.574,0,0,1,32.143,29.572Z" transform="translate(0 -0.001)"/></g></g></svg>