<svg xmlns="http://www.w3.org/2000/svg" width="36" height="32.143" viewBox="0 0 36 32.143"><defs><style>.a{fill:#fff;}.b{fill:#ababab;}.c{fill:#499f61;}.d{fill:#010101;}</style></defs><g transform="translate(0 -24)"><path class="a" d="M35.643,131.286H9.929A1.894,1.894,0,0,1,8,129.357V112H37.571v17.357A1.894,1.894,0,0,1,35.643,131.286Z" transform="translate(-7.357 -80.929)"/><path class="b" d="M37.571,38.429H8v-4.5A1.894,1.894,0,0,1,9.929,32H35.643a1.894,1.894,0,0,1,1.929,1.929Z" transform="translate(-7.357 -7.357)"/><path class="c" d="M240.357,224.714a8.357,8.357,0,1,1,8.357-8.357A8.341,8.341,0,0,1,240.357,224.714Z" transform="translate(-213.357 -169.214)"/><g transform="translate(0 24)"><circle class="d" cx="1.286" cy="1.286" r="1.286" transform="translate(12.857 2.571)"/><circle class="d" cx="1.286" cy="1.286" r="1.286" transform="translate(7.714 2.571)"/><circle class="d" cx="1.286" cy="1.286" r="1.286" transform="translate(2.571 2.571)"/><path class="d" d="M30.857,39.043V26.571A2.579,2.579,0,0,0,28.286,24H2.571A2.579,2.579,0,0,0,0,26.571V48.429A2.579,2.579,0,0,0,2.571,51H18.9A8.981,8.981,0,1,0,30.857,39.043ZM1.286,26.571a1.215,1.215,0,0,1,1.286-1.286H28.286a1.215,1.215,0,0,1,1.286,1.286v3.857H1.286ZM2.571,49.714a1.215,1.215,0,0,1-1.286-1.286V31.714H29.571v6.814A8.591,8.591,0,0,0,27,38.143a11.963,11.963,0,0,0-2.186.257l-4.179-4.179-.9.9,3.729,3.729A8.981,8.981,0,0,0,18,47.143a8.591,8.591,0,0,0,.386,2.571ZM27,54.857a7.714,7.714,0,1,1,7.714-7.714A7.737,7.737,0,0,1,27,54.857Z" transform="translate(0 -24)"/><rect class="d" width="15.428" height="1.286" transform="matrix(-0.259, 0.966, -0.966, -0.259, 18.076, 9.339)"/><path class="d" d="M55.264,152.9l-.9-.9L48,158.3l6.364,6.429.9-.964L49.8,158.3Z" transform="translate(-44.143 -141.714)"/><path class="d" d="M285.421,279.093l-2.121-2.121-.9.9,3.021,3.021,5.593-5.593-.9-.9Z" transform="translate(-259.707 -254.279)"/></g></g></svg>