<svg xmlns="http://www.w3.org/2000/svg" width="36" height="30" viewBox="0 0 36 30"><defs><style>.a{fill:#f9f9fa;}.b{fill:#dddddc;}.c{fill:#010101;}.d{fill:#cb5741;}.e{fill:#5785c4;}.f{fill:#f5bb2c;}.g{fill:#489e60;}</style></defs><g transform="translate(0 -32)"><path class="a" d="M40.25,141h-30A2.176,2.176,0,0,1,8,138.75V120H42.5v18.75A2.176,2.176,0,0,1,40.25,141Z" transform="translate(-7.25 -79.75)"/><path class="b" d="M42.5,47.5H8V42.25A2.176,2.176,0,0,1,10.25,40h30a2.176,2.176,0,0,1,2.25,2.25Z" transform="translate(-7.25 -7.25)"/><g transform="translate(0 32)"><path class="c" d="M33,32H3a3.009,3.009,0,0,0-3,3V59a3.009,3.009,0,0,0,3,3H33a3.009,3.009,0,0,0,3-3V35A3.009,3.009,0,0,0,33,32Zm1.5,27A1.417,1.417,0,0,1,33,60.5H3A1.417,1.417,0,0,1,1.5,59V41h33Zm0-19.5H1.5V35A1.417,1.417,0,0,1,3,33.5H33A1.417,1.417,0,0,1,34.5,35Z" transform="translate(0 -32)"/><circle class="c" cx="1.5" cy="1.5" r="1.5" transform="translate(12 3)"/><circle class="c" cx="1.5" cy="1.5" r="1.5" transform="translate(7.5 3)"/><circle class="c" cx="1.5" cy="1.5" r="1.5" transform="translate(3 3)"/></g><circle class="d" cx="2.25" cy="2.25" r="2.25" transform="translate(5.25 52.25)"/><circle class="e" cx="2.25" cy="2.25" r="2.25" transform="translate(11.25 44.75)"/><circle class="f" cx="2.25" cy="2.25" r="2.25" transform="translate(18.75 50.75)"/><circle class="g" cx="2.25" cy="2.25" r="2.25" transform="translate(26.25 44.75)"/><path d="M72,160a2.99,2.99,0,0,0-2.733,4.225l-2.976,2.381a2.949,2.949,0,0,0-3.582,0l-2.976-2.381a3,3,0,1,0-5.127.566l-2.381,2.976a3.038,3.038,0,1,0,1.168.942l2.381-2.976a2.948,2.948,0,0,0,3.017-.339l2.976,2.381a3,3,0,1,0,5.466,0l2.976-2.381A3,3,0,1,0,72,160ZM51,172a1.5,1.5,0,1,1,1.5-1.5A1.5,1.5,0,0,1,51,172Zm6-7.5a1.5,1.5,0,1,1,1.5-1.5A1.5,1.5,0,0,1,57,164.5Zm7.5,6A1.5,1.5,0,1,1,66,169,1.5,1.5,0,0,1,64.5,170.5Zm7.5-6a1.5,1.5,0,1,1,1.5-1.5A1.5,1.5,0,0,1,72,164.5Z" transform="translate(-43.5 -116)"/></g></svg>