<svg xmlns="http://www.w3.org/2000/svg" width="36" height="34.618" viewBox="0 0 36 34.618"><defs><style>.a{fill:#f9f9fa;}.b{fill:#787878;}.c{fill:#eb7a25;}.d{fill:#aaa;}.e{fill:#fff;}.f{fill:#cdcccc;}.g{fill:#010101;}</style></defs><g transform="translate(0 -9.2)"><path class="a" d="M25.429,115.531h0l.06-.06h0c0-.06,0,0-.06.06.06-.06.361-.6,3.185-5.349a7.342,7.342,0,0,1-.18-1.563,6.007,6.007,0,0,1,4.207-5.71v-2.7h1.8V97.2H8v18.571a1.808,1.808,0,0,0,1.8,1.8H25.429Z" transform="translate(-7.399 -81.389)"/><path class="b" d="M34.444,23.21H8V19a1.771,1.771,0,0,1,1.8-1.8H32.641a1.771,1.771,0,0,1,1.8,1.8Z" transform="translate(-7.399 -7.399)"/><path class="c" d="M75.232,148.265V145.2H56v6.01H73.129A5.825,5.825,0,0,1,75.232,148.265Z" transform="translate(-51.793 -125.783)"/><g transform="translate(4.207 29.033)"><rect class="d" width="7.212" height="3.606"/><path class="d" d="M220.868,273.2H216v3.606h2.7C219.125,276.085,219.846,274.943,220.868,273.2Z" transform="translate(-203.98 -273.2)"/></g><g transform="translate(18.09 34.021)"><path class="e" d="M240.8,340.071Z" transform="translate(-240.8 -340.011)"/><path class="e" d="M240.8,339.6Z" transform="translate(-240.8 -339.6)"/><path class="e" d="M479.2,339.6Z" transform="translate(-461.29 -339.6)"/></g><path class="f" d="M274.938,199.83a4.033,4.033,0,0,0,.361-1.683,4.147,4.147,0,0,0-8.294,0,4.033,4.033,0,0,0,.361,1.683L264,205.359v7.032l6.25-10.277a3.906,3.906,0,0,0,1.923,0l6.25,10.457v-7.032Zm-3.726,0a1.68,1.68,0,0,1-1.683-1.683,1.72,1.72,0,0,1,1.683-1.683,1.683,1.683,0,0,1,0,3.366Z" transform="translate(-244.167 -170.917)"/><g transform="translate(0 9.2)"><circle class="g" cx="1.202" cy="1.202" r="1.202" transform="translate(12.02 2.404)"/><circle class="g" cx="1.202" cy="1.202" r="1.202" transform="translate(7.212 2.404)"/><circle class="g" cx="1.202" cy="1.202" r="1.202" transform="translate(2.404 2.404)"/><path class="g" d="M68.434,140.445V137.2H48v7.212H65.549a7.024,7.024,0,0,1,.361-1.2H49.2V138.4h18.03v2.945A5.715,5.715,0,0,1,68.434,140.445Z" transform="translate(-44.394 -127.584)"/><path class="g" d="M48,270.008h8.414V265.2H48Zm1.2-3.606h6.01v2.4H49.2Z" transform="translate(-44.394 -245.968)"/><path class="g" d="M209.2,268.806v-2.4h3.907c.18-.3.361-.541.541-.9a2.6,2.6,0,0,0-.06-.3H208v4.808h2.945c.18-.3.421-.661.721-1.2Z" transform="translate(-192.374 -245.968)"/><path class="g" d="M1.2,34.442V16.412H26.444v2.4h1.2V11.6a2.411,2.411,0,0,0-2.4-2.4H2.4A2.411,2.411,0,0,0,0,11.6V34.442a2.411,2.411,0,0,0,2.4,2.4H18.03v-1.2H2.4A1.206,1.206,0,0,1,1.2,34.442ZM1.2,11.6a1.136,1.136,0,0,1,1.2-1.2H25.242a1.136,1.136,0,0,1,1.2,1.2V15.21H1.2Z" transform="translate(0 -9.2)"/><path class="g" d="M268.321,162.095a5.214,5.214,0,0,0,.3-1.683,4.8,4.8,0,0,0-4.207-4.748V153.2h-1.2v2.464a4.8,4.8,0,0,0-4.207,4.748,5.214,5.214,0,0,0,.3,1.683L256,167.624V177l7.092-11.9a2.926,2.926,0,0,0,.721.06c.24,0,.481-.06.721-.06l7.092,11.9v-9.376ZM257.2,172.672v-4.688c2.1-3.486,2.524-4.207,2.765-4.688a5.034,5.034,0,0,0,1.863,1.5Zm6.611-8.654a3.606,3.606,0,1,1,3.606-3.606A3.617,3.617,0,0,1,263.813,164.018Zm6.611,8.654-4.688-7.873a5.035,5.035,0,0,0,1.863-1.5c.3.481.721,1.2,2.765,4.688v4.688Z" transform="translate(-236.768 -142.382)"/><path class="g" d="M330.4,217.2a2.4,2.4,0,1,0,2.4,2.4A2.411,2.411,0,0,0,330.4,217.2Zm0,3.606a1.2,1.2,0,1,1,1.2-1.2A1.206,1.206,0,0,1,330.4,220.806Z" transform="translate(-303.359 -201.574)"/></g></g></svg>