<svg xmlns="http://www.w3.org/2000/svg" width="36" height="34.714" viewBox="0 0 36 34.714"><defs><style>.a{fill:#f9f9fa;}.b{fill:#ababab;}.c{fill:#f9c566;}.d{fill:#f0e8d2;}.e{fill:#ced8e0;}.f{fill:#eaa7a7;}.g{fill:#010101;}</style></defs><g transform="translate(0 -8)"><path class="a" d="M40.786,167.143H9.929A1.866,1.866,0,0,1,8,165.214V144H42.714v21.214A1.866,1.866,0,0,1,40.786,167.143Z" transform="translate(-7.357 -125.071)"/><path class="b" d="M42.714,70.429H8v-4.5A1.866,1.866,0,0,1,9.929,64H40.786a1.866,1.866,0,0,1,1.929,1.929Z" transform="translate(-7.357 -51.5)"/><rect class="c" width="5.143" height="16.181" transform="translate(25.071 16.246)"/><path class="d" d="M317.143,313.916V312H312v1.916l2.571,2.2Z" transform="translate(-286.929 -279.571)"/><rect class="e" width="5.143" height="3.746" transform="translate(25.071 12.5)"/><rect class="f" width="5.143" height="3.857" transform="translate(25.071 8.643)"/><g transform="translate(0 8)"><path class="g" d="M33.429,11.857H30.857V9.286A1.286,1.286,0,0,0,29.571,8H25.714a1.286,1.286,0,0,0-1.286,1.286v2.571H2.571A2.579,2.579,0,0,0,0,14.429V40.143a2.579,2.579,0,0,0,2.571,2.571H33.429A2.579,2.579,0,0,0,36,40.143V14.429A2.579,2.579,0,0,0,33.429,11.857ZM25.714,9.286h3.857v2.571H25.714Zm0,7.714h3.857V34.4l-1.9,1.526-1.952-1.565Zm0-1.286V13.143h3.857v2.571ZM1.286,14.429a1.215,1.215,0,0,1,1.286-1.286H24.429v5.143H1.286ZM34.714,40.143a1.215,1.215,0,0,1-1.286,1.286H2.571a1.215,1.215,0,0,1-1.286-1.286V19.571H24.429v5.143H5.143V26H24.429v2.571H5.143v1.286H24.429v2.571H5.143v1.286H24.429v1.262l3.238,2.6,3.191-2.556V19.571h3.857Zm0-21.857H30.857V13.143h2.571a1.215,1.215,0,0,1,1.286,1.286Z" transform="translate(0 -8)"/><circle class="g" cx="1.286" cy="1.286" r="1.286" transform="translate(12.857 6.429)"/><circle class="g" cx="1.286" cy="1.286" r="1.286" transform="translate(7.714 6.429)"/><circle class="g" cx="1.286" cy="1.286" r="1.286" transform="translate(2.571 6.429)"/><rect class="g" width="5.143" height="1.286" transform="translate(20.571 28.286)"/><rect class="g" width="5.143" height="1.286" transform="translate(12.857 28.286)"/><rect class="g" width="5.143" height="1.286" transform="translate(5.143 28.286)"/></g></g></svg>